PathFileType	4	(X/Y/Z)	OpenSim_Sub11_CSPreOp_Magnet.trc
DataRate	CameraRate	NumFrames	NumMarkers	Units	OrigDataRate	OrigDataStartFrame	OrigNumFrames
100	100	30	8	m	100	1851	3701
Frame#	Time	torso_imu_offset_imu	pelvis_imu_offset_imu	tibia_r_imu_offset_imu	femur_r_imu_offset_imu	tibia_l_imu_offset_imu	femur_l_imu_offset_imu	toes_r_imu_offset_imu	toes_l_imu_offset_imu
				X1	Y1	Z1	X2	Y2	Z2	X3	Y3	Z3	X4	Y4	Z4	X5	Y5	Z5	X6	Y6	Z6	X7	Y7	Z7	X8		Y8	Z8	

1851	18.50000000	-0.92993200	-0.20141600	0.01074200	-0.53955100	0.12866200	-0.65014600	-0.25756800	-0.72558600	-0.32763700	-0.69799800	-0.45849600	-0.01733400	-0.70776400	0.41381800	0.21875000	-0.69946300	0.26855500	0.52465800	-0.70556600	-0.53613300	-0.20849600	-0.78027300	-0.00854500	-0.33252000
1852	18.51000000	-0.92968800	-0.20361300	0.00854500	-0.53979500	0.12670900	-0.65258800	-0.26171900	-0.72558600	-0.33447300	-0.69970700	-0.45629900	-0.01489300	-0.70605500	0.41284200	0.22265600	-0.69726600	0.26269500	0.52783200	-0.70141600	-0.53735400	-0.21801800	-0.78002900	-0.00952100	-0.33007800
1853	18.52000000	-0.93188500	-0.20800800	0.01074200	-0.53393600	0.13793900	-0.64575200	-0.26831100	-0.71508800	-0.33935500	-0.69628900	-0.44311500	-0.01098600	-0.70117200	0.41967800	0.22876000	-0.69018600	0.27124000	0.53515600	-0.69262700	-0.52978500	-0.22070300	-0.77734400	-0.00463900	-0.32397500
1854	18.53000000	-0.92968800	-0.20361300	0.01733400	-0.53051800	0.13818400	-0.64624000	-0.27661100	-0.71508800	-0.34155300	-0.70214800	-0.43872100	-0.01318400	-0.69873000	0.42114300	0.22802700	-0.69067400	0.27099600	0.53564500	-0.69189500	-0.52636700	-0.23364300	-0.77807600	-0.00341800	-0.32177700
1855	18.54000000	-0.92968800	-0.20581100	0.01293900	-0.54199200	0.13916000	-0.65014600	-0.29150400	-0.71093800	-0.33935500	-0.71460000	-0.43359400	-0.01757800	-0.70825200	0.42211900	0.22778300	-0.69775400	0.26904300	0.53662100	-0.69799800	-0.51977500	-0.24951200	-0.79150400	-0.00488300	-0.32373000
1856	18.55000000	-0.93188500	-0.20581100	0.02197300	-0.53613300	0.14526400	-0.65478500	-0.30419900	-0.70678700	-0.34399400	-0.70898400	-0.42456100	-0.02417000	-0.70092800	0.42651400	0.22241200	-0.69213900	0.27197300	0.53344700	-0.68847700	-0.51391600	-0.26538100	-0.78613300	0.00048800	-0.32641600
1857	18.56000000	-0.93408200	-0.20800800	0.01757800	-0.53198200	0.14868200	-0.65527300	-0.31933600	-0.69213900	-0.33789100	-0.71240200	-0.42089800	-0.03320300	-0.69921900	0.43383800	0.22290000	-0.68945300	0.27734400	0.53295900	-0.68261700	-0.50830100	-0.27880900	-0.78710900	0.00195300	-0.32641600
1858	18.57000000	-0.92944300	-0.21215800	0.02197300	-0.53369100	0.15551800	-0.64404300	-0.33789100	-0.69653300	-0.33789100	-0.71704100	-0.41528300	-0.02294900	-0.70019500	0.43481400	0.23266600	-0.69116200	0.27954100	0.54467800	-0.67822300	-0.49902300	-0.29101600	-0.79174800	0.00634800	-0.31372100
1859	18.58000000	-0.92968800	-0.20800800	0.02417000	-0.53466800	0.15063500	-0.65551800	-0.34887700	-0.68383800	-0.33154300	-0.72045900	-0.41430700	-0.04101600	-0.69921900	0.42846700	0.22290000	-0.68969700	0.27417000	0.53710900	-0.67407200	-0.50024400	-0.31640600	-0.79418900	-0.00244100	-0.32421900
1860	18.59000000	-0.93408200	-0.20800800	0.01757800	-0.52368200	0.15478500	-0.65478500	-0.36572300	-0.67773400	-0.32495100	-0.71386700	-0.41015600	-0.04296900	-0.68920900	0.43383800	0.22631800	-0.67895500	0.27417000	0.54370100	-0.65576200	-0.49389600	-0.33252000	-0.78466800	-0.00000000	-0.31958000
1861	18.60000000	-0.93164100	-0.21020500	0.01757800	-0.52075200	0.15039100	-0.65039100	-0.38696300	-0.67138700	-0.32299800	-0.71289100	-0.40918000	-0.04296900	-0.68823200	0.43164100	0.22680700	-0.67749000	0.27246100	0.54223600	-0.64697300	-0.49194300	-0.34838900	-0.78710900	-0.00561500	-0.31762700
1862	18.61000000	-0.92944300	-0.20996100	0.01513700	-0.52490200	0.16381800	-0.64794900	-0.41235400	-0.65893600	-0.32128900	-0.71899400	-0.40014600	-0.04174800	-0.69116200	0.43969700	0.23413100	-0.67773400	0.28198200	0.55053700	-0.63842800	-0.47314500	-0.36157200	-0.79126000	-0.00024400	-0.30835000
1863	18.62000000	-0.93188500	-0.20581100	0.01977500	-0.51928700	0.16064500	-0.64648400	-0.43603500	-0.64233400	-0.32421900	-0.71777300	-0.40014600	-0.04418900	-0.68530300	0.43652300	0.23535200	-0.67456100	0.27929700	0.55395500	-0.62304700	-0.47094700	-0.37719700	-0.78906200	-0.00244100	-0.30688500
1864	18.63000000	-0.92553700	-0.20141600	0.00390600	-0.52172900	0.17041000	-0.65161100	-0.45288100	-0.63623000	-0.32446300	-0.72021500	-0.39282200	-0.05029300	-0.68774400	0.44116200	0.22973600	-0.67700200	0.28344700	0.54882800	-0.60937500	-0.45507800	-0.39770500	-0.79174800	-0.00097700	-0.30859400
1865	18.64000000	-0.92529300	-0.20556600	0.01733400	-0.52685500	0.17089800	-0.65087900	-0.47241200	-0.61523400	-0.32519500	-0.72558600	-0.39257800	-0.05127000	-0.69213900	0.44067400	0.23022500	-0.67993200	0.28344700	0.55102500	-0.60473600	-0.44726600	-0.40869100	-0.79882800	0.00073200	-0.30737300
1866	18.65000000	-0.92968800	-0.20581100	0.01733400	-0.52880900	0.17602500	-0.65600600	-0.49169900	-0.59863300	-0.33471700	-0.72998000	-0.38842800	-0.05444300	-0.69189500	0.44970700	0.22705100	-0.68139600	0.28955100	0.54638700	-0.59570300	-0.43042000	-0.42480500	-0.80175800	0.00537100	-0.31005900
1867	18.66000000	-0.92993200	-0.20141600	0.01977500	-0.51586900	0.16723600	-0.65478500	-0.52172900	-0.58203100	-0.32641600	-0.71801800	-0.39917000	-0.05590800	-0.68139600	0.44189500	0.22460900	-0.67089800	0.28271500	0.54467800	-0.57519500	-0.43090800	-0.43383800	-0.79174800	-0.00585900	-0.31030300
1868	18.67000000	-0.93408200	-0.20581100	0.01513700	-0.52050800	0.17993200	-0.65625000	-0.53906200	-0.56103500	-0.32495100	-0.72412100	-0.39428700	-0.05590800	-0.68579100	0.45117200	0.22558600	-0.67797900	0.29052700	0.54614300	-0.56713900	-0.41040000	-0.44213900	-0.79858400	0.00146500	-0.30688500
1869	18.68000000	-0.92724600	-0.20996100	0.02197300	-0.52319300	0.17382800	-0.65722700	-0.56079100	-0.54223600	-0.32763700	-0.72241200	-0.40234400	-0.05590800	-0.68530300	0.44751000	0.22583000	-0.67627000	0.28540000	0.55004900	-0.55664100	-0.40185500	-0.44873000	-0.80004900	-0.00463900	-0.30249000
1870	18.69000000	-0.93188500	-0.20581100	0.01977500	-0.52392600	0.17358400	-0.64892600	-0.58032200	-0.51928700	-0.32861300	-0.72314500	-0.40210000	-0.05102500	-0.68896500	0.44946300	0.23632800	-0.67797900	0.28955100	0.55883800	-0.55175800	-0.38842800	-0.44873000	-0.80517600	-0.00219700	-0.29516600
1871	18.70000000	-0.92724600	-0.21215800	0.02661100	-0.50854500	0.17724600	-0.64990200	-0.59155300	-0.49853500	-0.33374000	-0.70629900	-0.40747100	-0.04907200	-0.67114300	0.45581100	0.23608400	-0.66210900	0.29126000	0.55664100	-0.52880900	-0.37402300	-0.45507800	-0.79223600	-0.00097700	-0.29150400
1872	18.71000000	-0.92504900	-0.20996100	0.01977500	-0.51977500	0.17797900	-0.64648400	-0.61499000	-0.48388700	-0.32299800	-0.71093800	-0.41479500	-0.04223600	-0.68042000	0.45361300	0.24121100	-0.67285200	0.28710900	0.56518600	-0.53295900	-0.36694300	-0.45678700	-0.80078100	-0.00805700	-0.28588900
1873	18.72000000	-0.92944300	-0.21215800	0.02661100	-0.52026400	0.17211900	-0.65234400	-0.63452100	-0.46508800	-0.31933600	-0.71191400	-0.42163100	-0.04931600	-0.67895500	0.45166000	0.23486300	-0.67089800	0.28466800	0.55786100	-0.52880900	-0.35937500	-0.46655300	-0.80078100	-0.01440400	-0.29174800
1874	18.73000000	-0.92724600	-0.20996100	0.03100600	-0.51147500	0.18310500	-0.65063500	-0.64135700	-0.44848600	-0.32446300	-0.70654300	-0.41601600	-0.04711900	-0.67211900	0.46264600	0.23364300	-0.66601600	0.29711900	0.56103500	-0.51953100	-0.33642600	-0.47045900	-0.79760700	-0.00048800	-0.28613300
1875	18.74000000	-0.92944300	-0.21215800	0.02197300	-0.52148400	0.17602500	-0.65014600	-0.66064500	-0.43188500	-0.31835900	-0.70776400	-0.42773400	-0.04711900	-0.67871100	0.45385700	0.23608400	-0.67211900	0.28881800	0.56201200	-0.52734400	-0.33422900	-0.47168000	-0.80639600	-0.01342800	-0.28759800
1876	18.75000000	-0.92944300	-0.21435500	0.01977500	-0.51098600	0.18164100	-0.65673800	-0.66918900	-0.42553700	-0.31396500	-0.69946300	-0.42651400	-0.05322300	-0.66674800	0.46606400	0.23291000	-0.66015600	0.29614300	0.56030300	-0.51293900	-0.31323200	-0.48095700	-0.79687500	-0.00341800	-0.28833000
1877	18.76000000	-0.92944300	-0.21215800	0.01538100	-0.51757800	0.18090800	-0.65258800	-0.67602500	-0.41308600	-0.30322300	-0.70385700	-0.43042000	-0.04956100	-0.67358400	0.46875000	0.23608400	-0.66503900	0.29760700	0.56396500	-0.51586900	-0.30590800	-0.48071300	-0.80297900	-0.00903300	-0.28271500
1878	18.77000000	-0.92724600	-0.21435500	0.01757800	-0.52343800	0.18750000	-0.64990200	-0.68676800	-0.40698200	-0.30346700	-0.70556600	-0.43139600	-0.05004900	-0.67334000	0.47412100	0.23730500	-0.67065400	0.29931600	0.56713900	-0.51782200	-0.29614300	-0.48510700	-0.80786100	-0.00537100	-0.27954100
1879	18.78000000	-0.93383800	-0.21460000	0.02197300	-0.51220700	0.18042000	-0.65625000	-0.69116200	-0.39648400	-0.30151400	-0.69824200	-0.43676800	-0.06176800	-0.66674800	0.47168000	0.23193400	-0.66088900	0.29492200	0.56420900	-0.51025400	-0.29296900	-0.49340800	-0.80004900	-0.00903300	-0.28491200
1880	18.79000000	-0.92724600	-0.21435500	0.01074200	-0.51269500	0.18481400	-0.65673800	-0.69799800	-0.38598600	-0.30200200	-0.69775400	-0.43920900	-0.06054700	-0.66796900	0.47558600	0.23193400	-0.66406200	0.30004900	0.56616200	-0.51220700	-0.29199200	-0.49243200	-0.80297900	-0.00854500	-0.27758800
